<svg xmlns="http://www.w3.org/2000/svg" width="20" height="20" fill="none"><path fill="#606880" d="m15.792 13.958-2.688-2.687c.14-.222.247-.483.323-.781.077-.299.115-.601.115-.907 0-.986-.344-1.823-1.031-2.51-.688-.688-1.525-1.031-2.51-1.031-.306 0-.605.034-.897.104-.291.07-.555.18-.791.333L6.02 4.167c.486-.223 1.108-.417 1.865-.584.756-.166 1.496-.25 2.218-.25 1.875 0 3.604.514 5.188 1.542 1.583 1.028 2.791 2.41 3.625 4.146.041.07.07.153.083.25a2.44 2.44 0 0 1 0 .635.677.677 0 0 1-.083.26 9.996 9.996 0 0 1-1.334 2.105 9.819 9.819 0 0 1-1.791 1.687Zm.75 4.25L13.5 15.23a8.098 8.098 0 0 1-1.646.448 11.02 11.02 0 0 1-1.854.156 9.544 9.544 0 0 1-5.27-1.541c-1.598-1.028-2.813-2.41-3.647-4.146A.877.877 0 0 1 1 9.886a1.997 1.997 0 0 1-.02-.303A1.643 1.643 0 0 1 1.082 9a9.883 9.883 0 0 1 1.115-1.823c.451-.59.983-1.15 1.594-1.677L1.604 3.312a.6.6 0 0 1-.187-.437.6.6 0 0 1 .187-.438.611.611 0 0 1 .448-.187c.174 0 .323.063.448.188l14.917 14.916a.552.552 0 0 1 .166.406c0 .16-.055.302-.166.427a.523.523 0 0 1-.427.209.612.612 0 0 1-.448-.188ZM10 13.125c.194 0 .403-.017.625-.052.222-.035.41-.087.563-.156L6.667 8.396a2.55 2.55 0 0 0-.156.562 3.796 3.796 0 0 0-.053.625c0 1 .348 1.84 1.042 2.521a3.445 3.445 0 0 0 2.5 1.021Zm2.188-2.77-2.959-2.96c.861-.319 1.66-.152 2.396.5.736.654.924 1.473.563 2.46Z"/></svg>