<svg xmlns="http://www.w3.org/2000/svg" width="150" height="42" fill="none"><path fill="#404555" d="M21.338 42a21.57 21.57 0 0 1-11.846-3.531 21.076 21.076 0 0 1-7.86-9.413A20.698 20.698 0 0 1 .404 16.931 20.9 20.9 0 0 1 6.222 6.176 21.435 21.435 0 0 1 17.126.412a21.642 21.642 0 0 1 12.32 1.167 21.264 21.264 0 0 1 9.587 7.707 20.77 20.77 0 0 1 3.627 11.65 20.743 20.743 0 0 1-1.61 8.05 21.005 21.005 0 0 1-4.619 6.83 21.38 21.38 0 0 1-6.922 4.57A21.647 21.647 0 0 1 21.338 42m-4.12-11.774c.137.01.218.024.301.024 3.113 0 6.224.002 9.332.006.223 0 .288-.09.343-.27a833.3 833.3 0 0 1 1.474-4.675l2.93-9.256c.114-.357.22-.716.339-1.102-.138-.013-.218-.028-.301-.028-3.121 0-6.243-.002-9.364-.005a.327.327 0 0 0-.237.058.318.318 0 0 0-.128.204 522.83 522.83 0 0 1-1.09 3.529c-.116.372-.237.744-.378 1.183-.057-.13-.087-.184-.105-.24a8154.47 8154.47 0 0 1-2.345-7.533c-.081-.263-.188-.367-.48-.366-3.048.012-6.094.007-9.14.008-.112 0-.223.014-.373.023.076.254.137.465.201.676l4.49 14.22a.4.4 0 0 0 .162.268.414.414 0 0 0 .308.076c1.544-.012 3.09-.006 4.633-.006h.42c-.177.578-.337 1.099-.498 1.619l-.494 1.586m14.74-5.244a2.694 2.694 0 0 0-1.017.196 2.66 2.66 0 0 0-.863.565 2.58 2.58 0 0 0-.783 1.848c-.004.52.15 1.03.441 1.463.291.434.707.774 1.194.975a2.705 2.705 0 0 0 2.913-.56 2.588 2.588 0 0 0 .584-2.865 2.635 2.635 0 0 0-.984-1.18 2.697 2.697 0 0 0-1.484-.442"/><ellipse cx="31.915" cy="27.689" fill="#404555" opacity=".5" rx="2.752" ry="2.71"/><path fill="#404554" d="M76.628 2.513c-.247.686-.473 1.309-.696 1.933-1.552 4.333-3.1 8.666-4.648 13-.074.206-.165.295-.405.287a28.953 28.953 0 0 0-1.773 0 .342.342 0 0 1-.249-.056.321.321 0 0 1-.134-.21A2752.177 2752.177 0 0 0 65.09 7.18c-.03-.082-.069-.16-.144-.318l-.887 2.5c-.954 2.693-1.906 5.386-2.857 8.08a.35.35 0 0 1-.151.234.376.376 0 0 1-.28.061 32.85 32.85 0 0 0-1.772 0 .307.307 0 0 1-.22-.045.288.288 0 0 1-.124-.18 6953.746 6953.746 0 0 0-5.204-14.527c-.048-.134-.089-.275-.142-.44.13-.006.234-.014.338-.014h1.709c.883 0 .88 0 1.154.825 1.112 3.343 2.226 6.685 3.34 10.027.032.097.07.192.13.36.07-.185.122-.306.164-.43C61.35 9.802 62.55 6.29 63.748 2.777a.346.346 0 0 1 .147-.236.371.371 0 0 1 .277-.062c.558.019 1.118.016 1.677 0a.364.364 0 0 1 .266.054.346.346 0 0 1 .147.223c1.2 3.543 2.408 7.085 3.621 10.624.033.096.079.188.15.355.074-.208.126-.347.172-.487 1.16-3.48 2.319-6.962 3.475-10.443a.334.334 0 0 1 .137-.226.357.357 0 0 1 .263-.064c.826.013 1.651.005 2.552.005M134.62 2.525c.963 0 1.862-.01 2.763.012.109 0 .244.148.318.257a731.426 731.426 0 0 1 3.143 4.706l1.258 1.883c.056.084.119.164.211.288.422-.63.826-1.226 1.221-1.824 1.134-1.699 2.266-3.4 3.396-5.1a.45.45 0 0 1 .187-.179.468.468 0 0 1 .258-.048c.73.01 1.462.004 2.192.004.425 0 .426 0 .426.399v7.383c0 2.305-.006 4.61.007 6.917 0 .314-.081.413-.413.4-.644-.027-1.289-.008-1.934-.01-.115 0-.23-.01-.375-.016V6.877l-.078-.03-4.938 7.102-4.902-7.067-.086.014v10.317c0 .411 0 .412-.413.413-.633 0-1.268-.011-1.902.005-.267.007-.348-.075-.344-.333.01-1.702.005-3.405.005-5.108V2.525M123.494 2.262a8.325 8.325 0 0 1 3.576.661 8.066 8.066 0 0 1 2.913 2.112 7.372 7.372 0 0 1 1.804 4.437 7.638 7.638 0 0 1-1.121 4.645 7.585 7.585 0 0 1-4.084 3.26 8.745 8.745 0 0 1-5.767.054 7.526 7.526 0 0 1-3.343-2.064 7.153 7.153 0 0 1-1.783-3.426 7.417 7.417 0 0 1 .018-3.944 7.598 7.598 0 0 1 2.046-3.412 7.793 7.793 0 0 1 4.6-2.225c.434-.06.875-.075 1.143-.097m.137 2.406c-.182.01-.365.014-.546.03a5.068 5.068 0 0 0-1.863.5 4.923 4.923 0 0 0-1.523 1.152 5.363 5.363 0 0 0-1.195 2.113 5.246 5.246 0 0 0-.13 2.404 4.886 4.886 0 0 0 1.119 2.697 5.154 5.154 0 0 0 2.488 1.632 5.152 5.152 0 0 0 2.888.18 5.03 5.03 0 0 0 2.507-1.4 5.374 5.374 0 0 0 1.345-2.169c.264-.816.324-1.68.176-2.523a5.093 5.093 0 0 0-1.72-3.283 5.43 5.43 0 0 0-3.546-1.334M99.231 17.593V2.55c.102-.01.184-.024.267-.024 2.052.004 4.107-.054 6.155.032 1.209.01 2.399.29 3.477.82a7.751 7.751 0 0 1 2.733 2.232 7.187 7.187 0 0 1 1.294 2.673c.238.967.27 1.971.092 2.95a6.9 6.9 0 0 1-1.108 2.93 7.171 7.171 0 0 1-2.306 2.181 8.725 8.725 0 0 1-4.643 1.264c-1.912.01-3.825.004-5.738 0-.062 0-.125-.012-.222-.021m2.69-7.52v4.858c0 .181 0 .32.26.315 1.203-.027 2.408.016 3.608-.07a5.005 5.005 0 0 0 2.006-.533 4.823 4.823 0 0 0 1.592-1.292 5.165 5.165 0 0 0 1.073-3.836 4.797 4.797 0 0 0-1.464-3.133 5.118 5.118 0 0 0-3.24-1.417c-1.156-.074-2.32-.037-3.479-.066-.287-.008-.364.08-.362.352.012 1.61.006 3.219.006 4.829M96.025 4.202l-1.43 1.939c-.51-.288-.993-.593-1.505-.843a5.625 5.625 0 0 0-3.643-.575c-.35.038-.682.168-.961.376a1.869 1.869 0 0 0-.621.803 1.496 1.496 0 0 0 .308 1.717c.15.148.328.265.525.345.862.34 1.744.63 2.642.864 1.207.258 2.367.69 3.44 1.282.515.306.943.731 1.244 1.238.3.507.464 1.08.476 1.663a4.095 4.095 0 0 1-.212 1.75 4.199 4.199 0 0 1-.931 1.514 5.137 5.137 0 0 1-2.97 1.437 9.585 9.585 0 0 1-6.265-1.107c-.592-.326-1.136-.731-1.748-1.13l1.64-1.89c.531.354 1.027.732 1.572 1.034.721.448 1.535.736 2.384.845a6.01 6.01 0 0 0 2.53-.218 1.83 1.83 0 0 0 .704-.382c.202-.177.36-.396.462-.64a1.699 1.699 0 0 0-.102-1.52 2.288 2.288 0 0 0-1.4-.936c-1.009-.308-2.038-.551-3.055-.838a7.389 7.389 0 0 1-2.897-1.361 3.465 3.465 0 0 1-.853-1.136 3.361 3.361 0 0 1-.316-1.371c-.165-2.554 1.564-4.219 3.951-4.628a8.833 8.833 0 0 1 3.643.1 8.668 8.668 0 0 1 3.269 1.557c.033.025.062.056.121.11M81.769 2.55h-2.65V17.6h2.65V2.55Z"/><path fill="#888B94" d="M53.704 33.755c0-1.35.286-2.551.858-3.603a6.432 6.432 0 0 1 2.394-2.493c1.024-.597 2.168-.895 3.432-.895 1.597 0 2.94.363 4.031 1.09 1.09.727 1.889 1.746 2.395 3.058h-1.038a4.953 4.953 0 0 0-1.996-2.454c-.917-.61-2.048-.915-3.392-.915-1.077 0-2.055.253-2.933.759-.878.493-1.57 1.214-2.075 2.162-.506.934-.759 2.031-.759 3.29 0 1.247.253 2.338.759 3.272a5.431 5.431 0 0 0 2.075 2.142c.878.507 1.856.76 2.933.76 1.344 0 2.475-.299 3.392-.896a5.055 5.055 0 0 0 1.996-2.473h1.038c-.506 1.311-1.304 2.33-2.395 3.057-1.09.727-2.434 1.09-4.03 1.09-1.265 0-2.409-.291-3.433-.876a6.469 6.469 0 0 1-2.394-2.473c-.572-1.064-.858-2.265-.858-3.602ZM70.516 26.9v13.67h-.898V26.9h.898ZM81.37 40.57l-3.592-5.822h-3.073v5.823h-.898V26.9h3.851c1.557 0 2.72.357 3.492 1.071.785.714 1.178 1.662 1.178 2.843 0 1.052-.306 1.922-.918 2.61-.599.675-1.477 1.09-2.634 1.246l3.671 5.9H81.37Zm-6.665-6.562h2.993c1.238 0 2.162-.292 2.774-.877.612-.584.918-1.356.918-2.317 0-2.09-1.244-3.135-3.732-3.135h-2.953v6.329ZM84.434 33.755c0-1.35.286-2.551.858-3.603a6.431 6.431 0 0 1 2.394-2.493c1.025-.597 2.169-.895 3.432-.895 1.597 0 2.94.363 4.031 1.09 1.09.727 1.89 1.746 2.395 3.058h-1.038a4.952 4.952 0 0 0-1.995-2.454c-.918-.61-2.049-.915-3.393-.915-1.077 0-2.055.253-2.933.759-.878.493-1.57 1.214-2.075 2.162-.506.934-.758 2.031-.758 3.29 0 1.247.252 2.338.758 3.272a5.431 5.431 0 0 0 2.075 2.142c.878.507 1.856.76 2.933.76 1.344 0 2.475-.299 3.393-.896a5.055 5.055 0 0 0 1.995-2.473h1.038c-.506 1.311-1.304 2.33-2.395 3.057-1.09.727-2.434 1.09-4.03 1.09-1.264 0-2.408-.291-3.433-.876a6.468 6.468 0 0 1-2.394-2.473c-.572-1.064-.858-2.265-.858-3.602ZM101.246 39.83h5.208v.74h-6.106V26.9h.898v12.93ZM109.391 27.64v5.706h5.587v.74h-5.587v5.745h6.186v.74h-7.084V26.9h7.084v.74h-6.186Z"/><path fill="#F1C12B" d="M7.739 11.027h10.01l5.005 15.78h-10.01l-5.005-15.78Z"/><path fill="#fff" d="M32.179 14.367H22.048l-5.066 15.78h10.13l5.067-15.78Z"/></svg>