<svg xmlns="http://www.w3.org/2000/svg" width="20" height="20" fill="none"><path fill="#606880" d="M10 13.125c.986 0 1.823-.344 2.51-1.031.688-.688 1.032-1.525 1.032-2.51 0-.987-.344-1.824-1.031-2.511-.688-.688-1.525-1.031-2.51-1.031-.987 0-1.824.343-2.511 1.03-.688.688-1.032 1.525-1.032 2.511 0 .986.344 1.823 1.032 2.51.687.688 1.524 1.032 2.51 1.032Zm0-1.208a2.253 2.253 0 0 1-1.656-.677 2.253 2.253 0 0 1-.677-1.657c0-.652.225-1.205.677-1.656A2.253 2.253 0 0 1 10 7.25c.653 0 1.205.226 1.656.677.452.451.677 1.004.677 1.656 0 .653-.225 1.205-.677 1.657a2.253 2.253 0 0 1-1.656.677Zm0 3.916c-1.917 0-3.663-.52-5.24-1.562a10.543 10.543 0 0 1-3.656-4.125.815.815 0 0 1-.094-.25 1.49 1.49 0 0 1-.03-.313c0-.11.01-.215.03-.312a.815.815 0 0 1 .094-.25 10.544 10.544 0 0 1 3.657-4.125C6.337 3.854 8.082 3.333 10 3.333c1.916 0 3.662.521 5.239 1.563a10.544 10.544 0 0 1 3.656 4.125c.042.07.073.153.094.25.02.097.03.201.03.312 0 .111-.01.216-.03.313a.816.816 0 0 1-.094.25 10.543 10.543 0 0 1-3.656 4.125c-1.577 1.041-3.323 1.562-5.24 1.562Z"/></svg>